<svg width="20" height="20" fill="#000000" viewBox="0 0 24 24" xmlns="http://www.w3.org/2000/svg">
  <path d="M15.75 0h-7.5a3 3 0 0 0-3 3v18a3 3 0 0 0 3 3h7.5a3 3 0 0 0 3-3V3a3 3 0 0 0-3-3Zm1.5 21a1.5 1.5 0 0 1-1.5 1.5h-7.5a1.5 1.5 0 0 1-1.5-1.5V3a1.5 1.5 0 0 1 1.5-1.5h.532a.372.372 0 0 1 .342.223 1.5 1.5 0 0 0 1.376.902h3a1.5 1.5 0 0 0 1.376-.902.372.372 0 0 1 .342-.223h.532a1.5 1.5 0 0 1 1.5 1.5v18Z"></path>
  <path d="M15.75 2.25a.557.557 0 0 0-.447.22 2.25 2.25 0 0 1-1.803.905h-3a2.25 2.25 0 0 1-1.803-.905.557.557 0 0 0-.447-.22.75.75 0 0 0-.75.75v18a.75.75 0 0 0 .75.75h7.5a.75.75 0 0 0 .75-.75V3a.75.75 0 0 0-.75-.75Z"></path>
  <path d="M15.75 0h-7.5a3 3 0 0 0-3 3v18a3 3 0 0 0 3 3h7.5a3 3 0 0 0 3-3V3a3 3 0 0 0-3-3Zm1.5 21a1.5 1.5 0 0 1-1.5 1.5h-7.5a1.5 1.5 0 0 1-1.5-1.5V3a1.5 1.5 0 0 1 1.5-1.5h.532a.372.372 0 0 1 .342.223 1.5 1.5 0 0 0 1.376.902h3a1.5 1.5 0 0 0 1.376-.902.372.372 0 0 1 .342-.223h.532a1.5 1.5 0 0 1 1.5 1.5v18Z"></path>
</svg>